# xmcd
#
# Track frame offsets: 
#        150
#        21660
#        41599
#        53204
#        75369
#        87453
#        98200
#        120056
#        133525
#        152075
#        179564
#        193753
#        212983
#
# Disc length: 3202 seconds
#
# Revision: 0
# Processed by: cddbd v1.5.2PL0 Copyright (c) Steve Scherf et al.
# Submitted via: ExactAudioCopy v1.3
#
DISCID=ae0c800d
DTITLE=Dakota Suite - an almost silent live
DYEAR=1900
DGENRE=Indie
TTITLE0=I see your tears
TTITLE1=If you've never had to run away
TTITLE2=An almost silent live
TTITLE3=Last flare fraom a desperate shipwreck
TTITLE4=everything lies
TTITLE5=lumen
TTITLE6=I recoiled so violently
TTITLE7=A comfortable lie
TTITLE8=Wanner di pijn ons doet scheiden
TTITLE9=dont't cry
TTITLE10=I nKnow your desolate place
TTITLE11=Top Rocker
TTITLE12=Without you
EXTD=
EXTT0=
EXTT1=
EXTT2=
EXTT3=
EXTT4=
EXTT5=
EXTT6=
EXTT7=
EXTT8=
EXTT9=
EXTT10=
EXTT11=
EXTT12=
PLAYORDER=
